<svg xmlns="http://www.w3.org/2000/svg" width="1600" height="600" viewBox="0 0 1600 600" role="img" aria-label="WilkerMonky purple shadow technology profile banner">
  <defs>
    <linearGradient id="bg" x1="0" y1="0" x2="1" y2="1">
      <stop offset="0" stop-color="#030108"/>
      <stop offset="0.58" stop-color="#0B0614"/>
      <stop offset="1" stop-color="#030108"/>
    </linearGradient>
    <radialGradient id="aura" cx="50%" cy="43%" r="42%">
      <stop offset="0" stop-color="#C084FC" stop-opacity="0.58"/>
      <stop offset="0.22" stop-color="#A855F7" stop-opacity="0.34"/>
      <stop offset="0.55" stop-color="#7C3AED" stop-opacity="0.16"/>
      <stop offset="1" stop-color="#030108" stop-opacity="0"/>
    </radialGradient>
    <filter id="glow" x="-35%" y="-35%" width="170%" height="170%">
      <feGaussianBlur stdDeviation="6" result="blur"/>
      <feMerge><feMergeNode in="blur"/><feMergeNode in="SourceGraphic"/></feMerge>
    </filter>
    <pattern id="grid" width="92" height="92" patternUnits="userSpaceOnUse">
      <path d="M92 0H0V92" fill="none" stroke="#4C1D95" stroke-opacity="0.16" stroke-width="1"/>
    </pattern>
  </defs>
  <rect width="1600" height="600" fill="url(#bg)"/>
  <rect width="1600" height="600" fill="url(#grid)"/>
  <rect width="1600" height="600" fill="url(#aura)"/>
  <g fill="none" filter="url(#glow)">
    <path d="M130 390 C360 290 520 450 760 318 C1000 186 1188 268 1460 160" stroke="#A855F7" stroke-opacity="0.42" stroke-width="3"/>
    <path d="M100 470 C360 382 504 410 710 346 C954 270 1140 438 1510 282" stroke="#C084FC" stroke-opacity="0.24" stroke-width="2"/>
    <path d="M730 90 C690 185 690 405 770 520 M870 88 C912 184 910 405 830 520" stroke="#7C3AED" stroke-opacity="0.2" stroke-width="2"/>
    <circle cx="800" cy="300" r="168" stroke="#A855F7" stroke-opacity="0.24" stroke-width="2"/>
    <circle cx="800" cy="300" r="248" stroke="#4C1D95" stroke-opacity="0.18" stroke-width="2"/>
  </g>
  <g fill="none" stroke="#8B5CF6" stroke-opacity="0.38" stroke-width="1.5">
    <rect x="112" y="108" width="284" height="104" rx="12"/>
    <rect x="1204" y="96" width="294" height="108" rx="12"/>
    <rect x="180" y="412" width="268" height="86" rx="12"/>
    <rect x="1152" y="402" width="304" height="90" rx="12"/>
    <path d="M152 142 h160 M152 172 h206 M1238 132 h170 M1238 162 h208 M224 448 h150 M1192 438 h194" stroke="#C4B5FD" stroke-opacity="0.28"/>
  </g>
  <g fill="#C084FC" opacity="0.8">
    <circle cx="250" cy="78" r="2.5"/><circle cx="390" cy="320" r="2"/><circle cx="560" cy="112" r="3"/>
    <circle cx="1010" cy="95" r="2"/><circle cx="1250" cy="318" r="2.5"/><circle cx="1430" cy="78" r="3"/>
    <circle cx="720" cy="512" r="2"/><circle cx="930" cy="518" r="2.5"/><circle cx="1360" cy="496" r="2"/>
  </g>
  <g font-family="Georgia, 'Times New Roman', serif" text-anchor="middle">
    <text x="800" y="282" fill="#F5F3FF" font-size="118" font-weight="700" filter="url(#glow)">WilkerMonky</text>
    <text x="800" y="337" fill="#C084FC" font-size="26" font-family="Liberation Sans, Arial, sans-serif" font-weight="700" letter-spacing="4">FULL STACK DEVELOPER • BACKEND ENGINEERING • SYSTEMS INTEGRATION</text>
    <rect x="530" y="372" width="540" height="2.5" fill="#A855F7" opacity="0.76"/>
  </g>
</svg>
